<?xml version="1.0" encoding="UTF-8"?>
<svg version="1.1" xmlns="http://www.w3.org/2000/svg" width="72" height="30" viewBox="0 0 72 30" fill="none">
<path d="M0 0 C4.12279192 0.00914431 8.24551904 -0.00496515 12.36829758 -0.01591969 C20.42114874 -0.03361055 28.47384991 -0.02990731 36.5267067 -0.01826912 C43.07743169 -0.00919766 49.62811496 -0.00802676 56.17884445 -0.01236439 C57.11483144 -0.01297732 58.05081843 -0.01359025 59.01516867 -0.01422176 C60.9172179 -0.01550079 62.81926713 -0.01679765 64.72131634 -0.01811212 C82.51389757 -0.02949029 100.30639608 -0.01644775 118.09896374 0.00508934 C133.3317681 0.0229578 148.56445049 0.01985291 163.79725266 0.0014143 C181.53063333 -0.02004141 199.26394168 -0.02839191 216.99733353 -0.01613665 C218.89198429 -0.01486259 220.78663507 -0.0136051 222.68128586 -0.01236439 C223.61324075 -0.01174729 224.54519565 -0.01113018 225.5053916 -0.01049438 C232.04044057 -0.00705555 238.57544327 -0.01283799 245.11048508 -0.0222826 C253.08571738 -0.03355638 261.06079241 -0.03035036 269.03600693 -0.00915962 C273.09708423 0.00127898 277.15790031 0.00559719 281.21897507 -0.00775623 C315.20309151 -0.10993334 342.84879771 5.5528535 368.02772141 30.05024242 C391.7657425 55.03570204 396.06230555 83.83956048 395.95296383 117.09283352 C395.94381952 121.21562544 395.95792898 125.33835256 395.96888351 129.4611311 C395.98657438 137.51398226 395.98287114 145.56668343 395.97123295 153.61954021 C395.96216149 160.17026521 395.96099059 166.72094848 395.96532822 173.27167797 C395.96594115 174.20766496 395.96655408 175.14365195 395.96718559 176.10800219 C395.96846462 178.01005142 395.96976148 179.91210065 395.97107595 181.81414986 C395.98245411 199.60673109 395.96941158 217.39922959 395.94787449 235.19179726 C395.93000603 250.42460162 395.93311092 265.65728401 395.95154953 280.89008617 C395.97300524 298.62346685 395.98135574 316.3567752 395.96910048 334.09016705 C395.96782642 335.98481781 395.96656893 337.87946859 395.96532822 339.77411938 C395.96471111 340.70607427 395.96409401 341.63802917 395.96345821 342.59822512 C395.96001938 349.13327409 395.96580182 355.66827679 395.97524643 362.2033186 C395.98652021 370.17855089 395.98331419 378.15362593 395.96212345 386.12884045 C395.95168485 390.18991775 395.94736664 394.25073383 395.96072006 398.31180859 C396.06289717 432.29592503 390.40011032 459.94163123 365.90272141 485.12055492 C340.91726179 508.85857602 312.11340335 513.15513907 278.86013031 513.04579735 C274.73733839 513.03665304 270.61461127 513.0507625 266.49183273 513.06171703 C258.43898157 513.0794079 250.3862804 513.07570466 242.33342361 513.06406647 C235.78269862 513.05499501 229.23201535 513.05382411 222.68128586 513.05816174 C221.74529887 513.05877467 220.80931188 513.0593876 219.84496164 513.06001911 C217.94291241 513.06129814 216.04086318 513.062595 214.13881397 513.06390947 C196.34623274 513.07528763 178.55373423 513.0622451 160.76116657 513.04070801 C145.52836221 513.02283955 130.29567982 513.02594444 115.06287766 513.04438305 C97.32949698 513.06583876 79.59618863 513.07418926 61.86279678 513.06193399 C59.96814602 513.06065994 58.07349524 513.05940245 56.17884445 513.05816174 C55.24688956 513.05754463 54.31493466 513.05692753 53.35473871 513.05629173 C46.81968974 513.0528529 40.28468704 513.05863534 33.74964523 513.06807995 C25.77441293 513.07935373 17.7993379 513.07614771 9.82412338 513.05495697 C5.76304608 513.04451837 1.70223 513.04020016 -2.35884476 513.05355358 C-36.3429612 513.15573069 -63.9886674 507.49294384 -89.16759109 482.99555492 C-112.90561219 458.01009531 -117.20217524 429.20623687 -117.09283352 395.95296383 C-117.08368921 391.83017191 -117.09779867 387.70744478 -117.1087532 383.58466625 C-117.12644407 375.53181509 -117.12274083 367.47911392 -117.11110264 359.42625713 C-117.10203118 352.87553214 -117.10086028 346.32484887 -117.10519791 339.77411938 C-117.10581084 338.83813239 -117.10642377 337.9021454 -117.10705528 336.93779516 C-117.10833431 335.03574593 -117.10963117 333.1336967 -117.11094564 331.23164749 C-117.1223238 313.43906626 -117.10928127 295.64656775 -117.08774418 277.85400009 C-117.06987572 262.62119573 -117.07298061 247.38851334 -117.09141922 232.15571117 C-117.11287493 214.4223305 -117.12122543 196.68902215 -117.10897017 178.9556303 C-117.10769611 177.06097954 -117.10643862 175.16632876 -117.10519791 173.27167797 C-117.10427225 171.87374563 -117.10427225 171.87374563 -117.1033279 170.44757223 C-117.09988907 163.91252326 -117.10567151 157.37752056 -117.11511612 150.84247875 C-117.1263899 142.86724645 -117.12318388 134.89217142 -117.10199314 126.9169569 C-117.09155454 122.8558796 -117.08723633 118.79506352 -117.10058975 114.73398876 C-117.20276686 80.74987232 -111.53998001 53.10416612 -87.04259109 27.92524242 C-62.05713148 4.18722132 -33.25327304 -0.10934172 0 0 Z M-44.81993484 15.14789867 C-45.55752029 15.4080476 -46.29510574 15.66819653 -47.05504227 15.93622875 C-70.07678208 24.41556732 -87.84105133 41.58723038 -98.56993484 63.52289867 C-105.50959478 80.01562738 -106.72724304 96.07698549 -106.70364761 113.80980968 C-106.70591317 115.08228536 -106.70817873 116.35476103 -106.71051294 117.66579658 C-106.7165679 121.15897166 -106.71650488 124.65212258 -106.71531856 128.1453017 C-106.71511294 131.92800594 -106.72064854 135.71070274 -106.72537613 139.49340343 C-106.73364843 146.88982671 -106.73642941 154.28624202 -106.73698851 161.68266954 C-106.73746527 167.70051269 -106.73952801 173.71835324 -106.74268913 179.73619556 C-106.75148618 196.83351789 -106.75610997 213.93083396 -106.75535866 231.02815857 C-106.75529872 232.4079536 -106.75529872 232.4079536 -106.75523758 233.81562328 C-106.7551967 234.73662198 -106.75515582 235.65762069 -106.7551137 236.60652844 C-106.75470744 251.52476223 -106.76427429 266.44297076 -106.77837595 281.36119726 C-106.79277284 296.714046 -106.79964432 312.06688245 -106.79878217 327.41973811 C-106.79845136 336.02516232 -106.80114757 344.63056004 -106.81196022 353.23597813 C-106.82110893 360.56350393 -106.82320483 367.89099123 -106.8164508 375.21852031 C-106.81320757 378.94938346 -106.81304835 382.68017293 -106.82180405 386.41102886 C-106.88718125 416.18492755 -106.31773561 445.97013772 -85.56993484 469.52289867 C-84.60700516 470.71592602 -84.60700516 470.71592602 -83.62462234 471.93305492 C-68.56414156 489.91115652 -46.24794048 499.857713 -23.21901512 502.11975384 C-11.90826503 503.04402694 -0.52398678 502.80458085 10.81654131 502.78434801 C14.62231868 502.77976978 18.42807864 502.78683351 22.23385239 502.79230785 C29.66469332 502.80114666 37.09549358 502.79930471 44.52633602 502.79348257 C50.57124431 502.78894455 56.61614129 502.78836238 62.6610508 502.7905302 C63.52516712 502.79083667 64.38928344 502.79114314 65.2795851 502.79145889 C67.03563806 502.79209841 68.79169102 502.79274684 70.54774397 502.79340407 C86.96872722 502.79909112 103.38968805 502.7925749 119.81066763 502.78180334 C133.86748648 502.77286772 147.92427229 502.77442313 161.98109055 502.78364086 C178.34949217 502.79436956 194.71787421 502.79854362 211.08627886 502.79241633 C212.83515099 502.79177931 214.58402313 502.79115057 216.33289528 502.7905302 C217.19312402 502.79022165 218.05335276 502.7899131 218.93964903 502.7895952 C224.97020723 502.78787616 231.00075288 502.79076616 237.03130913 502.79548931 C244.39058647 502.80112706 251.74982121 502.79952126 259.10909373 502.78892782 C262.85606673 502.78371002 266.60296896 502.78154705 270.34994125 502.78822613 C299.79880939 502.83623074 329.17351099 502.00976869 352.43006516 481.52289867 C353.6230925 480.55996899 353.6230925 480.55996899 354.84022141 479.57758617 C373.22810963 464.173822 382.71124704 441.64168456 385.02692032 418.1422224 C385.94994963 406.90267425 385.71176523 395.58960043 385.69151449 384.32016754 C385.68693567 380.54095612 385.6940003 376.76176222 385.69947433 372.98255444 C385.70831279 365.60351536 385.70647127 358.22451723 385.70064905 350.84547663 C385.69611055 344.84205289 385.69552906 338.83864053 385.69769669 332.83521557 C385.69815638 331.54780025 385.69815638 331.54780025 385.69862537 330.23437655 C385.6992649 328.49016332 385.69991333 326.7459501 385.70057055 325.00173688 C385.70625759 308.69136244 385.69974158 292.38101058 385.68896982 276.07063985 C385.6800358 262.11135546 385.6815883 248.15210434 385.69080734 234.19282055 C385.70153882 217.93611066 385.70570842 201.6794205 385.69958282 185.42270756 C385.6989458 183.6853323 385.69831705 181.94795704 385.69769669 180.21058178 C385.69738813 179.35602197 385.69707958 178.50146217 385.69676168 177.62100661 C385.69504335 171.63299718 385.69793113 165.64500038 385.70265579 159.65699291 C385.70829672 152.34788305 385.70668126 145.03881608 385.6960943 137.72971106 C385.69088045 134.00894247 385.68870653 130.28824509 385.69539261 126.56747723 C385.74423318 96.84416507 385.17852205 67.02008277 364.43006516 43.52289867 C363.43233078 42.31246899 363.43233078 42.31246899 362.41444016 41.07758617 C346.31537941 22.1409212 323.75960054 12.70775724 299.36598206 10.70523071 C288.95150272 10.0584504 278.48901071 10.24282934 268.05824804 10.26144934 C264.25449656 10.26602764 260.45076249 10.25896378 256.64701462 10.25348949 C249.21984869 10.24465051 241.79272345 10.2464928 234.365556 10.25231478 C228.32303998 10.25685307 222.28053527 10.25743486 216.23801804 10.25526714 C215.37419044 10.25496068 214.51036284 10.25465421 213.62035865 10.25433846 C211.86487142 10.25369893 210.1093842 10.2530505 208.35389698 10.25239328 C191.93765235 10.24670608 175.52143015 10.2532225 159.1051892 10.26399401 C145.05494132 10.27292805 131.0047265 10.27137555 116.95447922 10.26215649 C100.59229394 10.25142529 84.23012826 10.24725525 67.86793995 10.25338101 C66.11933073 10.25401803 64.3707215 10.25464678 62.62211227 10.25526714 C61.76202425 10.25557569 60.90193622 10.25588425 60.01578492 10.25620215 C53.98870219 10.25792056 47.96163202 10.25503252 41.93455124 10.25030804 C34.57786434 10.24466742 27.22122005 10.24628192 19.86453795 10.25686952 C16.11946633 10.2620838 12.37446545 10.26425656 8.62939453 10.25757122 C-18.4860905 9.61594193 -18.4860905 9.61594193 -44.81993484 15.14789867 Z " fill="#0079FF" transform="translate(116.5699348449707,-0.5228986740112305)"/>
<path d="M0 0 C6.99455331 6.48466998 11.07827172 13.85466605 11.5 23.5 C11.12082172 31.64658785 8.73817468 37.76045503 2.8125 43.4375 C-3.69478672 48.70074661 -10.13933428 50.59834999 -18.47265625 50.27734375 C-26.83305332 49.35989678 -33.1271596 45.89862704 -40.2421875 41.5859375 C-47.49058505 37.41759557 -54.36071621 37.24227385 -62.4375 39.125 C-67.26288473 40.50083284 -70.64529213 42.54930367 -74.44140625 45.79296875 C-76 47 -76 47 -78 47 C-78.27972656 47.58136719 -78.55945313 48.16273438 -78.84765625 48.76171875 C-79.93672918 50.87710447 -81.13649877 52.82249501 -82.4375 54.8125 C-88.90561793 65.07753671 -90.53019236 75.7540072 -88.5390625 87.78515625 C-86.04538488 97.04110083 -80.76084526 106.21250059 -73 112 C-63.83260816 117.07833936 -55.2739016 119.6518434 -44.9375 116.6875 C-41.09173534 115.45450675 -37.54364652 113.95833097 -34 112 C-35.2684375 111.87044922 -35.2684375 111.87044922 -36.5625 111.73828125 C-46.6669568 110.48670649 -53.34231376 107.95778945 -59.74609375 99.87890625 C-63.6362697 94.0497018 -64.99938871 87.93828481 -64 81 C-62.14593702 73.39717569 -58.60324938 68.24092848 -52 64 C-45.65299467 60.55363794 -39.95197139 60.54766022 -32.8203125 60.56640625 C-31.65297577 60.5611644 -30.48563904 60.55592255 -29.28292847 60.55052185 C-26.82030022 60.54411513 -24.35764132 60.54542108 -21.89501953 60.55395508 C-18.14429717 60.56245626 -14.39510306 60.53369593 -10.64453125 60.50195312 C-8.24479212 60.50034063 -5.84505031 60.50091957 -3.4453125 60.50390625 C-2.33253937 60.49267227 -1.21976624 60.48143829 -0.07327271 60.46986389 C9.27540059 60.55276761 16.5575325 62.89645363 23.5 69.30859375 C29.52041474 76.0972385 31.44434148 85.57988966 31.18359375 94.4453125 C29.56276787 116.99893216 22.14454511 137.68604987 5 153 C-14.15478054 168.79732679 -37.84534145 175.63922804 -62.42163086 173.59936523 C-87.7282131 170.94721002 -111.77628454 158.45241161 -127.91015625 138.65625 C-144.55051293 116.85385588 -151.57113009 91.49749274 -148.3125 64.125 C-145.47580159 46.61572364 -138.69363424 30.47146729 -127 17 C-126.01966797 15.80503906 -126.01966797 15.80503906 -125.01953125 14.5859375 C-108.77792498 -4.52531505 -85.08294972 -15.67047538 -60.23046875 -17.78515625 C-38.98555419 -19.11876436 -16.32629076 -14.20145225 0 0 Z M-117.1875 22.25 C-128.91344612 36.06643242 -136.87701017 53.79395281 -138 72 C-138.05285156 72.84433594 -138.10570312 73.68867188 -138.16015625 74.55859375 C-138.58750861 88.25244995 -135.69310296 101.56978666 -130 114 C-129.58105469 114.92039062 -129.16210938 115.84078125 -128.73046875 116.7890625 C-119.08260755 136.08478491 -101.00628484 150.67208006 -80.9765625 158.125 C-60.1786645 164.97370249 -39.07216193 164.65723649 -19.13671875 155.11328125 C-1.01583861 145.67187203 10.42788242 132.47785742 17.00390625 113.03125 C19.9311547 102.51012513 22.29676056 90.06822255 17 80 C14.28024698 75.68590901 11.73178638 73.84786871 7 72 C3.22848867 71.55359576 -0.51788839 71.55573509 -4.3125 71.56640625 C-5.94312378 71.55854347 -5.94312378 71.55854347 -7.60668945 71.55052185 C-9.89956815 71.5441132 -12.19247978 71.54542361 -14.48535156 71.55395508 C-17.98822637 71.56247138 -21.48947334 71.53367526 -24.9921875 71.50195312 C-27.22395785 71.5003411 -29.45573107 71.50091868 -31.6875 71.50390625 C-33.25334839 71.48705528 -33.25334839 71.48705528 -34.85083008 71.46986389 C-42.12482669 71.53940704 -45.4764309 72.71943567 -50.8125 77.6875 C-52.96557924 81.88033852 -53.71932041 86.40639403 -52.4453125 91 C-50.45639692 95.08343729 -47.69193692 97.24309604 -43.57006836 99.20385742 C-38.1953182 100.86881993 -32.56811384 100.40287324 -27 100.25 C-25.12248047 100.22292969 -25.12248047 100.22292969 -23.20703125 100.1953125 C-20.13721758 100.14844512 -17.06901826 100.0828431 -14 100 C-14.75632215 101.91073841 -15.52260134 103.81753722 -16.29296875 105.72265625 C-16.93141724 107.31605835 -16.93141724 107.31605835 -17.58276367 108.94165039 C-21.38374185 117.14403688 -28.02125352 122.56986325 -36.296875 125.93359375 C-47.77605898 129.95901229 -59.78411632 130.36150494 -71.16015625 125.70703125 C-83.79769604 119.61532991 -92.54696258 110.27662537 -97.5 97.0625 C-102.31964369 82.62588208 -101.05535083 66.64713126 -94.875 52.875 C-89.00073655 41.83850503 -79.45378259 33.71822485 -68 29 C-55.27842317 25.25835976 -43.61592116 26.87499514 -31.95532227 33.0234375 C-30.01108068 34.08483109 -28.08002333 35.16668279 -26.15234375 36.2578125 C-21.50902166 38.82401033 -18.28613064 39.4332894 -13 39 C-7.72760653 37.19007388 -4.05479243 34.76547618 -1 30 C0.63624784 25.09125649 0.62223096 20.81860604 -1.4375 16.0625 C-7.4359058 5.25700941 -19.24476776 -0.49312038 -30.68310547 -3.78588867 C-62.83438921 -12.23294336 -94.49661814 -1.94769823 -117.1875 22.25 Z " fill="#006FFF" transform="translate(385,178)"/>
<path d="M0 0 C7.46195103 7.19545278 12.53127811 15.47597366 12.890625 25.92578125 C12.64841447 32.94019833 11.1656287 37.94654286 6.390625 43.17578125 C-0.14213292 49.13572949 -6.7005693 51.1647725 -15.5078125 50.796875 C-24.54960534 49.66961736 -30.46633279 45.22553095 -37.234375 39.3515625 C-40.47932405 36.57420159 -42.16831456 36.28834487 -46.359375 36.30078125 C-47.22304687 36.29820312 -48.08671875 36.295625 -48.9765625 36.29296875 C-51.29103471 36.41554204 -53.26726616 36.7761168 -55.484375 37.42578125 C-55.78580416 40.76535433 -55.78580416 40.76535433 -54.484375 44.42578125 C-51.53169983 46.83435166 -48.0025764 48.03440217 -44.484375 49.42578125 C-43.76685059 49.7103418 -43.04932617 49.99490234 -42.31005859 50.28808594 C-38.9529602 51.6193372 -35.59491845 52.94818368 -32.23535156 54.27319336 C-19.63268466 59.29109517 -8.1574276 64.95012183 2.515625 73.42578125 C3.38574219 74.05033203 3.38574219 74.05033203 4.2734375 74.6875 C13.96077439 81.91496339 19.40918974 94.04034196 21.19921875 105.68359375 C22.90195558 120.44064626 19.58322173 135.33703208 10.37109375 147.18359375 C8.16853965 149.69758224 5.89328839 152.07768028 3.515625 154.42578125 C2.98582031 154.9775 2.45601563 155.52921875 1.91015625 156.09765625 C-12.54634052 169.9223781 -34.52726084 174.69662881 -53.89941406 174.38720703 C-74.65147575 173.37944747 -94.26236482 165.55480517 -108.58984375 150.1640625 C-114.93641101 142.41015409 -118.90434245 133.89154497 -118.76953125 123.7421875 C-117.96488683 117.20582938 -115.38076328 109.92516507 -110.484375 105.42578125 C-103.75956046 100.59275232 -97.3687761 98.86862035 -89.1328125 99.6484375 C-80.71458406 101.13826143 -75.37724446 105.37847881 -69.609375 111.48828125 C-64.0682014 117.19093076 -58.40323075 120.43909354 -50.359375 120.86328125 C-45.90039022 120.35984748 -42.59601224 119.1879115 -38.484375 117.42578125 C-37.63050395 114.12010636 -37.63050395 114.12010636 -37.484375 110.42578125 C-43.99128003 102.30254824 -56.51483082 99.12841572 -65.921875 95.55078125 C-83.87145944 88.51875358 -101.43411523 79.00943471 -109.765625 60.59375 C-115.21461778 46.3679867 -114.66220082 31.87034579 -109.0078125 17.734375 C-102.42732692 3.28633827 -92.20529307 -5.84643192 -77.84375 -12.1796875 C-51.07583584 -21.89017551 -22.03793561 -18.73224527 0 0 Z M-89.484375 8.42578125 C-98.12884331 18.16356343 -102.95006207 28.98382834 -102.6953125 42.12890625 C-101.86974522 51.11841662 -99.18390269 58.44013686 -93.484375 65.42578125 C-92.99324219 66.0290625 -92.50210938 66.63234375 -91.99609375 67.25390625 C-82.42984247 77.79339898 -68.88720652 82.49781321 -55.96484375 87.45996094 C-52.16851648 88.93813718 -48.41436095 90.50427475 -44.671875 92.11328125 C-44.04498779 92.37439697 -43.41810059 92.6355127 -42.7722168 92.90454102 C-35.95585762 95.85740659 -30.18387469 99.24055351 -27.140625 106.1796875 C-25.58032662 111.51999445 -25.86057052 116.48097904 -27.546875 121.73828125 C-31.56320576 127.30932069 -36.37866581 129.95947827 -43.1015625 131.14453125 C-53.41232423 132.36153919 -62.64328963 130.86435754 -71.42578125 125.0859375 C-73.98901826 123.01881088 -76.161191 120.69383196 -78.421875 118.30078125 C-82.69255214 113.91892262 -86.26777811 111.00928854 -92.484375 110.42578125 C-97.01876689 110.65495629 -99.78642707 111.87956113 -103.359375 114.67578125 C-106.66457349 118.95309695 -107.53390092 121.89047765 -107.359375 127.30078125 C-105.77340218 136.78057336 -99.91538737 144.070148 -92.41015625 149.75390625 C-76.19779266 161.0046275 -58.05030021 165.1662198 -38.484375 162.42578125 C-21.37072166 159.20932342 -7.0255851 151.53594412 3.453125 137.42578125 C9.52561853 128.22416753 11.80958133 117.46366255 10.0546875 106.5625 C7.98227265 96.96843832 3.80730729 90.0060799 -3.484375 83.42578125 C-3.96132812 82.96816406 -4.43828125 82.51054687 -4.9296875 82.0390625 C-13.81088063 73.86579056 -24.86542055 69.17045303 -35.984375 64.86328125 C-62.11160124 54.65315359 -62.11160124 54.65315359 -65.484375 47.42578125 C-67.14936847 42.43080085 -67.04305244 38.10169537 -65.046875 33.23828125 C-62.84748475 29.30534383 -60.36828303 27.60204661 -56.1796875 26.046875 C-48.41886994 24.25851269 -39.42970196 24.13327591 -32.484375 28.42578125 C-29.6047168 30.65598463 -26.83017212 32.95893546 -24.09765625 35.3671875 C-19.77423314 38.77293336 -16.01887279 39.88594346 -10.4765625 39.75 C-6.05072478 39.02971661 -2.28793303 35.81956202 0.515625 32.42578125 C2.1860862 27.41439766 2.12965344 23.21042708 -0.109375 18.42578125 C-6.65498454 6.63004739 -17.74491061 -0.62591017 -30.484375 -4.57421875 C-50.93405328 -8.7600804 -73.63353442 -6.29822233 -89.484375 8.42578125 Z " fill="#0085FF" transform="translate(214.484375,177.57421875)"/>
</svg>
